<mxfile host="app.diagrams.net" agent="Mozilla/5.0 (Windows NT 10.0; Win64; x64) AppleWebKit/537.36 (KHTML, like Gecko) Chrome/130.0.0.0 Safari/537.36" version="24.8.3">
  <diagram name="Página-1" id="hi32-GZK5osbJeJXDcmc">
    <mxGraphModel dx="2104" dy="744" grid="1" gridSize="10" guides="1" tooltips="1" connect="1" arrows="1" fold="1" page="0" pageScale="1" pageWidth="827" pageHeight="1169" math="0" shadow="0">
      <root>
        <mxCell id="0" />
        <mxCell id="1" parent="0" />
        <mxCell id="bSVSipziFcyDVI-4jZac-16" value="" style="whiteSpace=wrap;html=1;" vertex="1" parent="1">
          <mxGeometry x="-400" y="190" width="550" height="420" as="geometry" />
        </mxCell>
        <mxCell id="J271XC-s34LTpZ1T-8Mj-24" value="Jefe de área" style="shape=umlActor;verticalLabelPosition=bottom;verticalAlign=top;html=1;" parent="1" vertex="1">
          <mxGeometry x="-480" y="360" width="40" height="80" as="geometry" />
        </mxCell>
        <mxCell id="J271XC-s34LTpZ1T-8Mj-25" value="" style="endArrow=open;startArrow=none;endFill=0;startFill=0;endSize=8;html=1;verticalAlign=bottom;labelBackgroundColor=none;strokeWidth=1;rounded=0;exitX=0.5;exitY=0.5;exitDx=0;exitDy=0;exitPerimeter=0;entryX=0;entryY=0.5;entryDx=0;entryDy=0;" parent="1" source="J271XC-s34LTpZ1T-8Mj-24" edge="1">
          <mxGeometry width="160" relative="1" as="geometry">
            <mxPoint x="-450" y="510" as="sourcePoint" />
            <mxPoint x="-360" y="400" as="targetPoint" />
          </mxGeometry>
        </mxCell>
        <mxCell id="bSVSipziFcyDVI-4jZac-1" value="" style="shape=ellipse;container=1;horizontal=1;horizontalStack=0;resizeParent=1;resizeParentMax=0;resizeLast=0;html=1;dashed=0;collapsible=0;" vertex="1" parent="1">
          <mxGeometry x="-360" y="360" width="160" height="80" as="geometry" />
        </mxCell>
        <mxCell id="bSVSipziFcyDVI-4jZac-2" value="Filtrar lista&amp;nbsp;&lt;div&gt;de profesores&lt;/div&gt;" style="html=1;strokeColor=none;fillColor=none;align=center;verticalAlign=middle;rotatable=0;whiteSpace=wrap;" vertex="1" parent="bSVSipziFcyDVI-4jZac-1">
          <mxGeometry y="30" width="160" height="20" as="geometry" />
        </mxCell>
        <mxCell id="bSVSipziFcyDVI-4jZac-3" style="edgeStyle=orthogonalEdgeStyle;rounded=0;orthogonalLoop=1;jettySize=auto;html=1;exitX=0.5;exitY=1;exitDx=0;exitDy=0;" edge="1" parent="bSVSipziFcyDVI-4jZac-1" source="bSVSipziFcyDVI-4jZac-2" target="bSVSipziFcyDVI-4jZac-2">
          <mxGeometry relative="1" as="geometry" />
        </mxCell>
        <mxCell id="bSVSipziFcyDVI-4jZac-4" value="" style="shape=ellipse;container=1;horizontal=1;horizontalStack=0;resizeParent=1;resizeParentMax=0;resizeLast=0;html=1;dashed=0;collapsible=0;" vertex="1" parent="1">
          <mxGeometry x="-80" y="360" width="160" height="80" as="geometry" />
        </mxCell>
        <mxCell id="bSVSipziFcyDVI-4jZac-5" value="Ingresar año" style="html=1;strokeColor=none;fillColor=none;align=center;verticalAlign=middle;rotatable=0;whiteSpace=wrap;" vertex="1" parent="bSVSipziFcyDVI-4jZac-4">
          <mxGeometry y="30" width="160" height="20" as="geometry" />
        </mxCell>
        <mxCell id="bSVSipziFcyDVI-4jZac-6" style="edgeStyle=orthogonalEdgeStyle;rounded=0;orthogonalLoop=1;jettySize=auto;html=1;exitX=0.5;exitY=1;exitDx=0;exitDy=0;" edge="1" parent="bSVSipziFcyDVI-4jZac-4" source="bSVSipziFcyDVI-4jZac-5" target="bSVSipziFcyDVI-4jZac-5">
          <mxGeometry relative="1" as="geometry" />
        </mxCell>
        <mxCell id="bSVSipziFcyDVI-4jZac-7" value="&amp;lt;&amp;lt;extend&amp;gt;&amp;gt;" style="html=1;verticalAlign=bottom;labelBackgroundColor=none;endArrow=open;endFill=0;dashed=1;rounded=0;exitX=0;exitY=0.5;exitDx=0;exitDy=0;entryX=1;entryY=0.5;entryDx=0;entryDy=0;" edge="1" parent="1" source="bSVSipziFcyDVI-4jZac-5" target="bSVSipziFcyDVI-4jZac-2">
          <mxGeometry width="160" relative="1" as="geometry">
            <mxPoint x="-210" y="490" as="sourcePoint" />
            <mxPoint x="-50" y="490" as="targetPoint" />
            <mxPoint as="offset" />
          </mxGeometry>
        </mxCell>
        <mxCell id="bSVSipziFcyDVI-4jZac-8" value="" style="shape=ellipse;container=1;horizontal=1;horizontalStack=0;resizeParent=1;resizeParentMax=0;resizeLast=0;html=1;dashed=0;collapsible=0;" vertex="1" parent="1">
          <mxGeometry x="-80" y="240" width="160" height="80" as="geometry" />
        </mxCell>
        <mxCell id="bSVSipziFcyDVI-4jZac-9" value="Ingresar turno" style="html=1;strokeColor=none;fillColor=none;align=center;verticalAlign=middle;rotatable=0;whiteSpace=wrap;" vertex="1" parent="bSVSipziFcyDVI-4jZac-8">
          <mxGeometry y="30" width="160" height="20" as="geometry" />
        </mxCell>
        <mxCell id="bSVSipziFcyDVI-4jZac-10" style="edgeStyle=orthogonalEdgeStyle;rounded=0;orthogonalLoop=1;jettySize=auto;html=1;exitX=0.5;exitY=1;exitDx=0;exitDy=0;" edge="1" parent="bSVSipziFcyDVI-4jZac-8" source="bSVSipziFcyDVI-4jZac-9" target="bSVSipziFcyDVI-4jZac-9">
          <mxGeometry relative="1" as="geometry" />
        </mxCell>
        <mxCell id="bSVSipziFcyDVI-4jZac-11" value="" style="shape=ellipse;container=1;horizontal=1;horizontalStack=0;resizeParent=1;resizeParentMax=0;resizeLast=0;html=1;dashed=0;collapsible=0;" vertex="1" parent="1">
          <mxGeometry x="-80" y="480" width="160" height="80" as="geometry" />
        </mxCell>
        <mxCell id="bSVSipziFcyDVI-4jZac-12" value="Ingresar carrera" style="html=1;strokeColor=none;fillColor=none;align=center;verticalAlign=middle;rotatable=0;whiteSpace=wrap;" vertex="1" parent="bSVSipziFcyDVI-4jZac-11">
          <mxGeometry y="30" width="160" height="20" as="geometry" />
        </mxCell>
        <mxCell id="bSVSipziFcyDVI-4jZac-13" style="edgeStyle=orthogonalEdgeStyle;rounded=0;orthogonalLoop=1;jettySize=auto;html=1;exitX=0.5;exitY=1;exitDx=0;exitDy=0;" edge="1" parent="bSVSipziFcyDVI-4jZac-11" source="bSVSipziFcyDVI-4jZac-12" target="bSVSipziFcyDVI-4jZac-12">
          <mxGeometry relative="1" as="geometry" />
        </mxCell>
        <mxCell id="bSVSipziFcyDVI-4jZac-14" value="&amp;lt;&amp;lt;extend&amp;gt;&amp;gt;" style="html=1;verticalAlign=bottom;labelBackgroundColor=none;endArrow=open;endFill=0;dashed=1;rounded=0;exitX=0;exitY=0.25;exitDx=0;exitDy=0;entryX=1;entryY=1;entryDx=0;entryDy=0;" edge="1" parent="1" source="bSVSipziFcyDVI-4jZac-12" target="bSVSipziFcyDVI-4jZac-2">
          <mxGeometry width="160" relative="1" as="geometry">
            <mxPoint x="-70" y="410" as="sourcePoint" />
            <mxPoint x="-150" y="410" as="targetPoint" />
          </mxGeometry>
        </mxCell>
        <mxCell id="bSVSipziFcyDVI-4jZac-15" value="&amp;lt;&amp;lt;extend&amp;gt;&amp;gt;" style="html=1;verticalAlign=bottom;labelBackgroundColor=none;endArrow=open;endFill=0;dashed=1;rounded=0;exitX=0;exitY=0.75;exitDx=0;exitDy=0;entryX=1;entryY=0;entryDx=0;entryDy=0;" edge="1" parent="1" source="bSVSipziFcyDVI-4jZac-9" target="bSVSipziFcyDVI-4jZac-2">
          <mxGeometry x="0.0036" width="160" relative="1" as="geometry">
            <mxPoint x="-70" y="410" as="sourcePoint" />
            <mxPoint x="-150" y="410" as="targetPoint" />
            <mxPoint as="offset" />
          </mxGeometry>
        </mxCell>
      </root>
    </mxGraphModel>
  </diagram>
</mxfile>
